<?xml version="1.0" encoding="iso-8859-1"?>
<!-- Generator: Adobe Illustrator 19.0.0, SVG Export Plug-In . SVG Version: 6.00 Build 0)  -->
<svg version="1.1" id="Capa_1" xmlns="http://www.w3.org/2000/svg" xmlns:xlink="http://www.w3.org/1999/xlink" x="0px" y="0px"
	 viewBox="0 0 512 512" style="enable-background:new 0 0 512 512;" xml:space="preserve">
<g>
	
		<linearGradient id="SVGID_1_" gradientUnits="userSpaceOnUse" x1="-48.7546" y1="652.5727" x2="-48.0474" y2="651.8656" gradientTransform="matrix(494.9333 0 0 -494.9333 24211.2676 323061.0313)">
		<stop  offset="0" style="stop-color:#D3DFF2"/>
		<stop  offset="0.1717" style="stop-color:#D3DFF2"/>
		<stop  offset="0.2" style="stop-color:#D3DFF2"/>
		<stop  offset="0.2002" style="stop-color:#DAE2F2"/>
		<stop  offset="0.2007" style="stop-color:#EBEAF2"/>
		<stop  offset="0.2014" style="stop-color:#F6EFF2"/>
		<stop  offset="0.2023" style="stop-color:#FDF2F2"/>
		<stop  offset="0.205" style="stop-color:#FFF3F2"/>
		<stop  offset="0.2522" style="stop-color:#FFF3F2"/>
		<stop  offset="0.26" style="stop-color:#FFF3F2"/>
		<stop  offset="0.26" style="stop-color:#D3DFF2"/>
		<stop  offset="0.3974" style="stop-color:#D3DFF2"/>
		<stop  offset="0.42" style="stop-color:#D3DFF2"/>
		<stop  offset="0.4202" style="stop-color:#DAE2F2"/>
		<stop  offset="0.4207" style="stop-color:#EBEAF2"/>
		<stop  offset="0.4214" style="stop-color:#F6EFF2"/>
		<stop  offset="0.4223" style="stop-color:#FDF2F2"/>
		<stop  offset="0.425" style="stop-color:#FFF3F2"/>
		<stop  offset="0.4894" style="stop-color:#FFF3F2"/>
		<stop  offset="0.5" style="stop-color:#FFF3F2"/>
		<stop  offset="0.5" style="stop-color:#F8F0F2"/>
		<stop  offset="0.5001" style="stop-color:#E7E8F2"/>
		<stop  offset="0.5003" style="stop-color:#DCE3F2"/>
		<stop  offset="0.5005" style="stop-color:#D5E0F2"/>
		<stop  offset="0.501" style="stop-color:#D3DFF2"/>
		<stop  offset="0.7062" style="stop-color:#D3DFF2"/>
		<stop  offset="0.74" style="stop-color:#D3DFF2"/>
		<stop  offset="0.741" style="stop-color:#FFF3F2"/>
		<stop  offset="0.8346" style="stop-color:#FFF3F2"/>
		<stop  offset="0.85" style="stop-color:#FFF3F2"/>
		<stop  offset="0.851" style="stop-color:#D3DFF2"/>
	</linearGradient>
	<circle style="fill:url(#SVGID_1_);" cx="256" cy="256" r="247.467"/>
	<path style="fill:#A4C2F7;" d="M256,8.533c-4.294,0-8.56,0.109-12.8,0.327C374.722,15.675,477.866,124.302,477.866,256
		S374.722,496.325,243.2,503.14c4.24,0.217,8.506,0.326,12.8,0.327c136.672,0,247.467-110.795,247.467-247.467
		S392.672,8.533,256,8.533z"/>
	<path style="fill:#FFFFFF;" d="M256,8.533c4.294,0,8.56,0.109,12.8,0.327C137.278,15.675,34.134,124.302,34.134,256
		S137.278,496.325,268.8,503.14c-4.24,0.217-8.506,0.326-12.8,0.327C119.328,503.467,8.533,392.672,8.533,256
		S119.328,8.533,256,8.533L256,8.533z"/>
	<g>
		<path style="fill:#428DFF;" d="M256,512C114.615,512,0,397.385,0,256S114.615,0,256,0s256,114.615,256,256
			C511.84,397.319,397.319,511.84,256,512z M256,17.067C124.041,17.067,17.067,124.041,17.067,256S124.041,494.933,256,494.933
			S494.933,387.959,494.933,256C494.785,124.102,387.898,17.215,256,17.067z"/>
		<path style="fill:#428DFF;" d="M332.8,324.267c-2.264,0.001-4.435-0.897-6.035-2.498c-1.601-1.601-2.499-3.772-2.498-6.035
			V196.267c0-4.713,3.82-8.533,8.533-8.533s8.533,3.821,8.533,8.533v119.467c0.001,2.264-0.897,4.435-2.498,6.035
			C337.235,323.369,335.064,324.268,332.8,324.267L332.8,324.267z"/>
		<path style="fill:#428DFF;" d="M384,324.267c-2.264,0.001-4.435-0.897-6.035-2.498c-1.601-1.601-2.499-3.772-2.498-6.035V196.267
			c0-4.713,3.821-8.533,8.533-8.533s8.533,3.821,8.533,8.533v119.467c0.001,2.264-0.897,4.435-2.498,6.035
			C388.435,323.369,386.264,324.268,384,324.267L384,324.267z"/>
		<path style="fill:#428DFF;" d="M221.858,324.267c-3.04-0.004-5.849-1.624-7.373-4.254c-1.525-2.63-1.535-5.873-0.027-8.512
			l68.267-119.467c2.338-4.091,7.55-5.513,11.642-3.175c4.091,2.338,5.513,7.55,3.175,11.642l-68.267,119.467
			C227.756,322.63,224.924,324.272,221.858,324.267z"/>
	</g>
	<polygon style="fill:#A4C2F7;" points="204.8,256 102.4,315.733 102.4,196.267 	"/>
	<path style="fill:#428DFF;" d="M102.4,324.267c-2.263,0-4.434-0.899-6.034-2.499c-1.6-1.6-2.499-3.771-2.499-6.034V196.267
		c0.001-3.055,1.634-5.878,4.283-7.4c2.649-1.522,5.91-1.513,8.55,0.025l102.4,59.733c2.622,1.531,4.233,4.339,4.233,7.375
		c0,3.036-1.612,5.844-4.233,7.375l-102.4,59.733C105.393,323.865,103.91,324.265,102.4,324.267L102.4,324.267z M110.933,211.125
		v89.75L187.867,256L110.933,211.125z"/>
</g>
<g>
</g>
<g>
</g>
<g>
</g>
<g>
</g>
<g>
</g>
<g>
</g>
<g>
</g>
<g>
</g>
<g>
</g>
<g>
</g>
<g>
</g>
<g>
</g>
<g>
</g>
<g>
</g>
<g>
</g>
</svg>
